# xmcd
# 
# Track frame offsets:
#     150
#     25630
#     44730
#     81197
#     108307
#     137722
#     172315
#     195877
#     222465
# 
# Disc length: 3317
# 
# Revision: 1
# Processed by: cddbd v1.5.2PL0 Copyright (c) Steve Scherf et al.
# Submitted via: BonkEnc v1.0.8
# 
DISCID=7d0cf309
DTITLE=Helio Alves - Portrait In Black And White
DYEAR=2003
DGENRE=Contemporary Jazz
TTITLE0=Frenzy
TTITLE1=Sambetinho
TTITLE2=Angel Eyes
TTITLE3=Portrait in Black and White
TTITLE4=Falling Grace
TTITLE5=You Must Believe in Spring
TTITLE6=Loose Samba
TTITLE7=Song for Anna
TTITLE8=Loro
EXTD=
EXTT0=
EXTT1=
EXTT2=
EXTT3=
EXTT4=
EXTT5=
EXTT6=
EXTT7=
EXTT8=
PLAYORDER=
